<mxfile host="app.diagrams.net" agent="Mozilla/5.0 (Windows NT 10.0; Win64; x64) AppleWebKit/537.36 (KHTML, like Gecko) Chrome/135.0.0.0 Safari/537.36" version="26.3.0">
  <diagram name="Page-1" id="rYXq0lY4zenKRHuZ_o7E">
    <mxGraphModel dx="2137" dy="1112" grid="1" gridSize="10" guides="1" tooltips="1" connect="1" arrows="1" fold="1" page="1" pageScale="1" pageWidth="2336" pageHeight="1654" math="1" shadow="0">
      <root>
        <mxCell id="0" />
        <mxCell id="1" parent="0" />
        <mxCell id="uNWSWLL81d_pEoYMGTGE-48" style="edgeStyle=orthogonalEdgeStyle;rounded=0;orthogonalLoop=1;jettySize=auto;html=1;exitX=0.5;exitY=1;exitDx=0;exitDy=0;" edge="1" parent="1" source="uNWSWLL81d_pEoYMGTGE-2" target="uNWSWLL81d_pEoYMGTGE-47">
          <mxGeometry relative="1" as="geometry" />
        </mxCell>
        <mxCell id="uNWSWLL81d_pEoYMGTGE-2" value="步骤1：根据要素维度确定微电网组成&lt;div&gt;&lt;span style=&quot;background-color: transparent; color: light-dark(rgb(0, 0, 0), rgb(255, 255, 255));&quot;&gt;$$\mathcal{M} = \{\mathcal{G}, \mathcal{R}, \mathcal{E}, \mathcal{L}, \mathcal{C} \}$$&lt;/span&gt;&lt;/div&gt;" style="rounded=1;whiteSpace=wrap;html=1;fontSize=12;glass=0;strokeWidth=1;shadow=0;fillColor=#fff2cc;strokeColor=#d6b656;" vertex="1" parent="1">
          <mxGeometry x="68.12" y="203.25" width="295" height="70" as="geometry" />
        </mxCell>
        <mxCell id="uNWSWLL81d_pEoYMGTGE-4" value="YES" style="edgeStyle=orthogonalEdgeStyle;rounded=0;html=1;jettySize=auto;orthogonalLoop=1;fontSize=11;endArrow=classic;endFill=1;endSize=8;strokeWidth=1;shadow=0;labelBackgroundColor=none;" edge="1" parent="1" source="uNWSWLL81d_pEoYMGTGE-5" target="uNWSWLL81d_pEoYMGTGE-6">
          <mxGeometry y="10" relative="1" as="geometry">
            <mxPoint as="offset" />
          </mxGeometry>
        </mxCell>
        <mxCell id="uNWSWLL81d_pEoYMGTGE-51" style="edgeStyle=orthogonalEdgeStyle;rounded=0;orthogonalLoop=1;jettySize=auto;html=1;exitX=0.5;exitY=1;exitDx=0;exitDy=0;entryX=0.5;entryY=0;entryDx=0;entryDy=0;" edge="1" parent="1" source="uNWSWLL81d_pEoYMGTGE-5" target="uNWSWLL81d_pEoYMGTGE-50">
          <mxGeometry relative="1" as="geometry" />
        </mxCell>
        <mxCell id="uNWSWLL81d_pEoYMGTGE-54" value="NO" style="edgeLabel;html=1;align=center;verticalAlign=middle;resizable=0;points=[];" vertex="1" connectable="0" parent="uNWSWLL81d_pEoYMGTGE-51">
          <mxGeometry x="-0.14" y="2" relative="1" as="geometry">
            <mxPoint x="-15" y="5" as="offset" />
          </mxGeometry>
        </mxCell>
        <mxCell id="uNWSWLL81d_pEoYMGTGE-5" value="若\(dim(\mathcal{A}) \geq 5\) 并且&lt;div&gt;要精细控制某个模块&lt;/div&gt;" style="rhombus;whiteSpace=wrap;html=1;shadow=0;fontFamily=Helvetica;fontSize=12;align=center;strokeWidth=1;spacing=6;spacingTop=-4;" vertex="1" parent="1">
          <mxGeometry x="113.12" y="423.25" width="205" height="81" as="geometry" />
        </mxCell>
        <mxCell id="uNWSWLL81d_pEoYMGTGE-6" value="架构类型\( \gets\) 多智能体" style="rounded=1;whiteSpace=wrap;html=1;fontSize=12;glass=0;strokeWidth=1;shadow=0;" vertex="1" parent="1">
          <mxGeometry x="385.62" y="443.25" width="134.38" height="41" as="geometry" />
        </mxCell>
        <mxCell id="uNWSWLL81d_pEoYMGTGE-7" value="NO" style="rounded=0;html=1;jettySize=auto;orthogonalLoop=1;fontSize=11;endArrow=classic;endFill=1;endSize=8;strokeWidth=1;shadow=0;labelBackgroundColor=none;edgeStyle=orthogonalEdgeStyle;" edge="1" parent="1" source="uNWSWLL81d_pEoYMGTGE-9" target="uNWSWLL81d_pEoYMGTGE-10">
          <mxGeometry x="-0.0333" y="20" relative="1" as="geometry">
            <mxPoint as="offset" />
          </mxGeometry>
        </mxCell>
        <mxCell id="uNWSWLL81d_pEoYMGTGE-8" value="YES" style="edgeStyle=orthogonalEdgeStyle;rounded=0;html=1;jettySize=auto;orthogonalLoop=1;fontSize=11;endArrow=classic;endFill=1;endSize=8;strokeWidth=1;shadow=0;labelBackgroundColor=none;" edge="1" parent="1" source="uNWSWLL81d_pEoYMGTGE-9" target="uNWSWLL81d_pEoYMGTGE-11">
          <mxGeometry y="10" relative="1" as="geometry">
            <mxPoint as="offset" />
          </mxGeometry>
        </mxCell>
        <mxCell id="uNWSWLL81d_pEoYMGTGE-9" value="若考虑不同类型的奖励函数设计思路" style="rhombus;whiteSpace=wrap;html=1;shadow=0;fontFamily=Helvetica;fontSize=12;align=center;strokeWidth=1;spacing=6;spacingTop=-4;" vertex="1" parent="1">
          <mxGeometry x="625" y="332.75" width="245" height="80" as="geometry" />
        </mxCell>
        <mxCell id="uNWSWLL81d_pEoYMGTGE-64" style="edgeStyle=orthogonalEdgeStyle;rounded=0;orthogonalLoop=1;jettySize=auto;html=1;exitX=0.5;exitY=1;exitDx=0;exitDy=0;entryX=0.5;entryY=0;entryDx=0;entryDy=0;" edge="1" parent="1" source="uNWSWLL81d_pEoYMGTGE-10" target="uNWSWLL81d_pEoYMGTGE-63">
          <mxGeometry relative="1" as="geometry" />
        </mxCell>
        <mxCell id="uNWSWLL81d_pEoYMGTGE-10" value="奖励函数 \( \gets \) 多目标加权设计" style="rounded=1;whiteSpace=wrap;html=1;fontSize=12;glass=0;strokeWidth=1;shadow=0;" vertex="1" parent="1">
          <mxGeometry x="647.5" y="472.75" width="200" height="49" as="geometry" />
        </mxCell>
        <mxCell id="uNWSWLL81d_pEoYMGTGE-65" style="edgeStyle=orthogonalEdgeStyle;rounded=0;orthogonalLoop=1;jettySize=auto;html=1;exitX=0.5;exitY=1;exitDx=0;exitDy=0;entryX=1;entryY=0.5;entryDx=0;entryDy=0;" edge="1" parent="1" source="uNWSWLL81d_pEoYMGTGE-11" target="uNWSWLL81d_pEoYMGTGE-63">
          <mxGeometry relative="1" as="geometry" />
        </mxCell>
        <mxCell id="uNWSWLL81d_pEoYMGTGE-11" value="奖励函数 \( \gets \) 定制化改造设计" style="rounded=1;whiteSpace=wrap;html=1;fontSize=12;glass=0;strokeWidth=1;shadow=0;" vertex="1" parent="1">
          <mxGeometry x="974.5" y="352.75" width="175.5" height="40" as="geometry" />
        </mxCell>
        <mxCell id="uNWSWLL81d_pEoYMGTGE-49" style="edgeStyle=orthogonalEdgeStyle;rounded=0;orthogonalLoop=1;jettySize=auto;html=1;exitX=0.5;exitY=1;exitDx=0;exitDy=0;entryX=0.5;entryY=0;entryDx=0;entryDy=0;" edge="1" parent="1" source="uNWSWLL81d_pEoYMGTGE-47" target="uNWSWLL81d_pEoYMGTGE-5">
          <mxGeometry relative="1" as="geometry" />
        </mxCell>
        <mxCell id="uNWSWLL81d_pEoYMGTGE-47" value="划分控制模式" style="rounded=1;whiteSpace=wrap;html=1;fontSize=12;glass=0;strokeWidth=1;shadow=0;" vertex="1" parent="1">
          <mxGeometry x="125.62" y="313.25" width="180" height="57" as="geometry" />
        </mxCell>
        <mxCell id="uNWSWLL81d_pEoYMGTGE-57" style="edgeStyle=orthogonalEdgeStyle;rounded=0;orthogonalLoop=1;jettySize=auto;html=1;exitX=0.5;exitY=1;exitDx=0;exitDy=0;entryX=0.5;entryY=0;entryDx=0;entryDy=0;" edge="1" parent="1" source="uNWSWLL81d_pEoYMGTGE-50" target="uNWSWLL81d_pEoYMGTGE-56">
          <mxGeometry relative="1" as="geometry" />
        </mxCell>
        <mxCell id="uNWSWLL81d_pEoYMGTGE-50" value="架构类型\( \gets\) 集中式单智能体" style="rounded=1;whiteSpace=wrap;html=1;fontSize=12;glass=0;strokeWidth=1;shadow=0;" vertex="1" parent="1">
          <mxGeometry x="135.62" y="564.25" width="160" height="40" as="geometry" />
        </mxCell>
        <mxCell id="uNWSWLL81d_pEoYMGTGE-69" style="edgeStyle=orthogonalEdgeStyle;rounded=0;orthogonalLoop=1;jettySize=auto;html=1;exitX=0.5;exitY=1;exitDx=0;exitDy=0;entryX=0.5;entryY=0;entryDx=0;entryDy=0;" edge="1" parent="1" source="uNWSWLL81d_pEoYMGTGE-56" target="uNWSWLL81d_pEoYMGTGE-59">
          <mxGeometry relative="1" as="geometry">
            <Array as="points">
              <mxPoint x="216" y="752" />
              <mxPoint x="540" y="752" />
              <mxPoint x="540" y="183" />
              <mxPoint x="747" y="183" />
            </Array>
          </mxGeometry>
        </mxCell>
        <mxCell id="uNWSWLL81d_pEoYMGTGE-56" value="步骤2：根据环境维度确定各个模块的状态信息和动作信息，建立状态-动作空间表征体系" style="rounded=1;whiteSpace=wrap;html=1;fontSize=12;glass=0;strokeWidth=1;shadow=0;fillColor=#fff2cc;strokeColor=#d6b656;" vertex="1" parent="1">
          <mxGeometry x="49.99999999999999" y="643.25" width="331.25" height="70" as="geometry" />
        </mxCell>
        <mxCell id="uNWSWLL81d_pEoYMGTGE-61" style="edgeStyle=orthogonalEdgeStyle;rounded=0;orthogonalLoop=1;jettySize=auto;html=1;exitX=0.5;exitY=1;exitDx=0;exitDy=0;entryX=0.5;entryY=0;entryDx=0;entryDy=0;" edge="1" parent="1" source="uNWSWLL81d_pEoYMGTGE-59" target="uNWSWLL81d_pEoYMGTGE-9">
          <mxGeometry relative="1" as="geometry" />
        </mxCell>
        <mxCell id="uNWSWLL81d_pEoYMGTGE-59" value="步骤3：根据目标维度构建奖励函数" style="rounded=1;whiteSpace=wrap;html=1;fontSize=12;glass=0;strokeWidth=1;shadow=0;fillColor=#fff2cc;strokeColor=#d6b656;" vertex="1" parent="1">
          <mxGeometry x="643.12" y="212" width="208.75" height="52.5" as="geometry" />
        </mxCell>
        <mxCell id="uNWSWLL81d_pEoYMGTGE-67" style="edgeStyle=orthogonalEdgeStyle;rounded=0;orthogonalLoop=1;jettySize=auto;html=1;exitX=0.5;exitY=1;exitDx=0;exitDy=0;entryX=0.5;entryY=0;entryDx=0;entryDy=0;" edge="1" parent="1" source="uNWSWLL81d_pEoYMGTGE-63" target="uNWSWLL81d_pEoYMGTGE-66">
          <mxGeometry relative="1" as="geometry" />
        </mxCell>
        <mxCell id="uNWSWLL81d_pEoYMGTGE-63" value="步骤4：仿真环境开发和算法实现" style="rounded=1;whiteSpace=wrap;html=1;fontSize=12;glass=0;strokeWidth=1;shadow=0;fillColor=#fff2cc;strokeColor=#d6b656;" vertex="1" parent="1">
          <mxGeometry x="647.5" y="591.75" width="200" height="49" as="geometry" />
        </mxCell>
        <mxCell id="uNWSWLL81d_pEoYMGTGE-66" value="步骤5：开始训练" style="rounded=1;whiteSpace=wrap;html=1;fontSize=12;glass=0;strokeWidth=1;shadow=0;fillColor=#fff2cc;strokeColor=#d6b656;" vertex="1" parent="1">
          <mxGeometry x="647.5" y="701.75" width="200" height="49" as="geometry" />
        </mxCell>
      </root>
    </mxGraphModel>
  </diagram>
</mxfile>
